<?xml version="1.0" encoding="UTF-8"?>
<svg width="200" height="200" viewBox="0 0 200 200" xmlns="http://www.w3.org/2000/svg">
  <!-- Background circle -->
  <circle cx="100" cy="100" r="95" fill="#e8f4fd" stroke="#4a90e2" stroke-width="3"/>
  
  <!-- Face -->
  <circle cx="100" cy="90" r="40" fill="#ffeaa7"/>
  
  <!-- Hair -->
  <path d="M60 70 Q70 50 100 55 Q130 50 140 70 Q145 75 140 85 Q135 90 125 85 Q100 80 75 85 Q65 90 60 85 Z" fill="#74b9ff"/>
  
  <!-- Eyes -->
  <circle cx="88" cy="85" r="4" fill="#2d3436"/>
  <circle cx="112" cy="85" r="4" fill="#2d3436"/>
  <circle cx="89" cy="83" r="1.5" fill="#ffffff"/>
  <circle cx="113" cy="83" r="1.5" fill="#ffffff"/>
  
  <!-- Nose -->
  <circle cx="100" cy="93" r="1" fill="#fdcb6e"/>
  
  <!-- Mouth -->
  <path d="M94 100 Q100 105 106 100" stroke="#e17055" stroke-width="2" fill="none" stroke-linecap="round"/>
  
  <!-- Body -->
  <rect x="75" y="125" width="50" height="60" rx="25" fill="#81ecec"/>
  
  <!-- Arms -->
  <circle cx="60" cy="145" r="12" fill="#ffeaa7"/>
  <circle cx="140" cy="145" r="12" fill="#ffeaa7"/>
  
  <!-- Hands -->
  <circle cx="50" cy="155" r="8" fill="#ffeaa7"/>
  <circle cx="150" cy="155" r="8" fill="#ffeaa7"/>
  
  <!-- Speech bubble -->
  <ellipse cx="160" cy="60" rx="35" ry="20" fill="#ffffff" stroke="#ddd" stroke-width="2"/>
  <polygon points="140,70 135,75 145,75" fill="#ffffff"/>
  <text x="160" y="65" text-anchor="middle" font-family="sans-serif" font-size="12" fill="#666">こんにちは！</text>
</svg>